<?xml version="1.0" encoding="UTF-8"?>
<svg version="1.1" viewBox="0 0 2048 898" width="1491" height="654" xmlns="http://www.w3.org/2000/svg">
<path transform="translate(0)" d="m0 0h2048v898h-2048z" fill="#BCC0C1"/>
<path transform="translate(993,103)" d="m0 0h10l13 4 17 9 11 7 25 14 20 13 25 15 20 13 29 17 22 14 18 11 22 12 11 10 7 11 4 9 1 6v196l-1 15-3 10-6 11-6 7-13 9-22 13-18 10-20 12-20 13-26 15-40 25-26 15-20 12-21 10h-12l-18-8-20-11-27-16-21-12-19-12-24-15-14-9-21-12-14-9-23-14-20-13-10-9-6-9-2-6-1-7v-214l3-10 8-11 10-9 17-11 24-15 22-14 19-12 25-15 17-11 23-14 14-9 14-8 15-10 21-11z" fill="#0B202D"/>
<path transform="translate(802,578)" d="m0 0 6 1 11 1 5 2 10 1 13 7 16 8 11 2 14 9 35 21 13 8 25 15 17 10v2l6 1 7 3 12 2 13-2 15-6 9-4 10-3 9 1 7 2 4-2 7-1 3-3 2-4v2l3-3-4-3 5-5h2l1 4-3 7 3-1 3 3v2l10 1 9-1 3 3v2l12 3 5 4 6 11 1 1v6l-1 3 1 2 9 1 47 1 8-1h10l10 2 11 5 16 8 7 3 9 2 34 1 25 4 9 4 4 4 2 6 18-6 21 1 14 5 10 7 6 7 2 8 1 55 1 11-21 1-2-4-1-6-9 8-10 3-22 1-10-2-11 1-11 3h-10l-11-4h-32l-12-4h-5l-11 7-13 4-11-1-15-5-1-2h-37l-30-1-1-9v-80l-1-27-1 19-4 4-11-2-21-5-13 1-7 3-3-4-1-8h-2v50l-1 3h2l2-5 12-13 6-8 5-10 4 1h24l1 3-5 5-5 3-3 1-4 14-6-1-5 15 1 4 11 12 12 16 7 10 3 5v4h-27l-12-19-10-13-2-3-5 2-4 5-1 27-23 1-1-18v-59l-2-29-3 8-9 4-13 1-7-1h-20l-14 5-7 4-6-2-10-3-9-1-7 1-15-4-11-1-13 1-3-3-4-10-1 8-1 1h-27l-5-1 1 94 1-21 1-5 4 1 5 11 4 6 4 5v2l4 2 10 4-10-7-7-11-3-10 2-9 9-10 9-6 11-4h18l12 2-3-9-7-6-8-3-12 1-8 2h-8l-7-6v-5l10-7 6-3 12-2h12l12 3 11 6 8 9 3 10 1 19 1 46-23 1v-14l-11 9-11 5-11 1-10 2-19 7-9 2-8 1-8-3-1-4-14-1h-25l-10-4h-9l-12 6h-26l-5-3-1-2-27-1-12-6-7 1-10 4h-23l-11-1-8-3h-7l-10 7-8 3h-11l-7-5-2-4-2-2-4 1-8 3h-17l-11-4-6-4-1-1 1 42h-26l-1-24-4-5-16 1-6-4-4-4v-2h-7v-2l-7 4-13 4-5 1h-13l-16-5-13-7-12-11-7-10-5-14-2-12v-10l2-13 4-10 7-11 7-8 14-9 10-4 4-1h23l6 1 3-1 25 7 8 3 15 2h32l11 3 7 4 2 3v2l15 4h9l7-3 27-1 11-4h2v-2l11-5 7-2h10l11 2 15 1 13-2 8-5 13-6 10-2 6-2 15-2 21-6 6-2 12-2 15-9 3-3 3-7v-7l-8-15-4-5-3-9-4-6-2-4-2-14-2-7 2-2 8-1-1-9-1-2z" fill="#D1D9DC"/>
<path transform="translate(984,150)" d="m0 0h5l1 10 1 22v69l-5 6-17 12-28 21-18 13-10 9-12 9-13 12-8 8h-1l-1-7-1-30-1-19-19 4-3 1-1 195-1 21-2 4-5-1-13-7-19-14-16-10-3-3-1-23-1-47v-125l4-9 7-7 22-15 17-11 17-10 14-9 19-12 17-11 23-14 18-12 23-13 9-6z" fill="#2BD2E9"/>
<path transform="translate(999,287)" d="m0 0 5 1 7 7 8 7 13 11 14 11 13 12 14 12 16 16 8 7 3 3-2 4-10 10-8 7-10 9-10 8-14 12-11 9-17 14-12 11-6 6-4-2-11-10-11-9-13-11-9-7-17-14-10-8-12-11-8-7-9-9 1-4 16-15 11-11 11-9 13-11 10-8 21-16 18-13z" fill="#D2DADD"/>
<path transform="translate(1149,231)" d="m0 0 12 7 15 10 16 12 13 11 3 2 2 33v139l-1 25-12 10-13 9-11 6-2-1 3-5 1-7-1-4-5 3-11 8-3 3h-2v8l1 4 4 2-8 7h-1v-52l-2-62v-107l1-59z" fill="#36E3C3"/>
<path transform="translate(1035,694)" d="m0 0h1l3 47v59l1 17h22v-27l6-7 4-1 10 13 10 15 4 7 27 1-3-7-7-11-9-11-7-9-9-10 1-5 4-13h4l3 1 1-8 3-7 7-3 5-5v-2h-24l-4-2-2 6-6 10-10 10-7 10h-2l1-53h2l3 10 2 1 6-3 14-1 28 7 5-1 1-2 1-19 1-6h1l1 33v90l-4 2-15 1-12 6-6 1-26 1-18-1-11 3h-10l-11-2-10-10 1-2 7-3 12-9 4-9v-16l-4-6-10-7-27-9-5-5 1-5 4-3h14l7 3 5 4 2-5 10-10-16-8-9-3h-16l-11 4-9 7-5 9-1 5v7l3 8 7 6 14 7 19 5 4 4v6l-4 4-9 1-16-4-8-4-5 4-5 6v5l20 10 4 1v2h-14l-9 5-8 1-4-1v-2l-7-1-4 4-11 1-5-3-1-6 1-2-10 4-4-1 13-8 5-5h2v14l2-1h21l-1-6-1-40-1-19-3-10-7-8-14-7-9-2h-12l-12 2-11 6-4 3v5l6 5h8l14-3 10 1 9 6 4 5 1 7-12-1h-18l-11 4-9 6-8 9-2 9 4 12 6 9 10 7-2 1-10-5-5-5-6-8-5-10-1-3-3-1-1 26-2 4v-98h32l2-12h1l2 9 2 7 16-1 13 2 12 3 12-1 12 3 6 3 6-2 8-4 9-3h20l10 1 13-2 6-2 1-5z" fill="#D7E8F0"/>
<path transform="translate(1015,152)" d="m0 0 4 2 14 8 17 9 40 25 12 8 14 9 5 4 1 93 1 39-3-1-9-11-10-8-13-12-13-11-12-11-14-11-11-9-12-9-10-9-2-2z" fill="#EE935A"/>
<path transform="translate(436,695)" d="m0 0h23l13 3 12 6 11 9 9 12 5 11 2 9v23l-3 13-2 4h-2l-2 4-1 3h-2v3h-2l-1 4-5 4-11 9-8 4-16 4h-13l-16-5-13-7-12-11-7-10-5-14-2-12v-10l2-13 4-10 7-11 7-8 14-9 10-4z" fill="#0B202D"/>
<path transform="translate(879,413)" d="m0 0 4 2 12 11 11 9 14 12 15 11 9 7 13 10 11 8 11 9 6 4 1 7-1 5 3 2 1 5v27l-2 56-11-7-19-11-23-14-14-9-13-8-15-9-12-8-1-1v-7l2-5h3l-4-5-2-15v-34z" fill="#2BD2E9"/>
<path transform="translate(1120,413)" d="m0 0h3v60l-1 30v21l-5-3-2-5-10 7-7 4v4l6 1 10-4 7-1-5 5-14 9-16 9-18 13-16 9-10 7-5 3-2-1 14-10 1-10-1-2-5 2-13 9-5 5-8 7-2 3 4 3 11-5 2 1-18 11-3 2v-77l-1-23 8-8 14-11 11-9 19-14 13-11 12-9 13-10 15-10z" fill="#36E3C3"/>
<path transform="translate(1127,695)" d="m0 0h54l14 3 10 5 7 7 4 7 2 6v10l-5 13-7 6-4 1v2l7 1 14 14 2 4 1 12-3 7-9 10-5 7-14 7-6 1h-32l-30-1-1-9v-95z" fill="#0B202D"/>
<path transform="translate(519,725)" d="m0 0 26 2-1 12 12-11 8-3h11l10 3 9 5 9 8 7 11 3 10v21l-4 9-5 8-5 5-6 7-10 5-4 1h-17l-11-4-6-4-1-1 1 42h-26z" fill="#0B202D"/>
<path transform="translate(1551,691)" d="m0 0h17l6 1v65l1 34v26l-22 1-1-11-8 6-11 5h-12l-8-3-13-10-10-12-6-11-1-4v-17l4-11 6-9 8-8 8-5 6-2 11-1 15 3 8 5 1 1v-33z" fill="#0B202D"/>
<path transform="translate(1264,725)" d="m0 0h18l13 5 10 7 5 4 10 14 6 13 1 10-7 13-6 5-5 10-6 4-7 5-12 4h-14l-14-4-13-8-8-10-5-10-2-9v-14l4-12 7-11 5-5 8-6 8-4z" fill="#0B202D"/>
<path transform="translate(1359,725)" d="m0 0h19l14 5 10 7 6 7 2 8 1 55 1 11-21 1-2-4-1-6-9 8-10 3h-18l-11-4-7-5-6-10-1-3v-8l7-14 8-7 8-4 10-2h24l3 1-2-10-6-5-3-1h-31l-6-10 1-4 14-7z" fill="#0B202D"/>
<path transform="translate(999,287)" d="m0 0 5 1 7 7 8 7 13 11 14 11 13 12 14 12 16 16 8 7 3 3-2 4-5 3-4 4-4 1-9-6-14-13-8-7-4-3v-2l-4-2-14-12-10-8-8-8-5-6v-2l-6 3-18 14-16 10-10 8-11 9-12 8-13 12-6 6-6-1-10-6-5-4 1-4 16-15 11-11 11-9 13-11 10-8 21-16 18-13z" fill="#BCC0C1"/>
<path transform="translate(901,725)" d="m0 0h12l12 3 11 6 8 9 3 10 1 19 1 46-23 1v-14l-11 9-11 5-11 1-10-3-8-6-7-11-3-10 2-9 9-10 9-6 11-4h18l12 2-3-9-7-6-8-3-12 1-8 2h-8l-7-6v-5l10-7 6-3z" fill="#0B202D"/>
<path transform="translate(655,726)" d="m0 0h15l11 4 10 8 7 8 4 11 3 20v4l-24 1h-38l2 6 5 5 9 4h15l12-6 10 8 5 5-10 7-10 6-10 2h-14l-14-4-9-6-10-10-5-10-2-9v-16l6-15 9-10 8-7 8-4z" fill="#0B202D"/>
<path transform="translate(1037,691)" d="m0 0h23l1 9 1 39v20l-1 3h2l2-5 12-13 6-8 5-10 4 1h24l1 3-5 5-5 3-3 1-4 14-6-1-5 15 1 4 11 12 12 16 7 10 3 5v4h-27l-12-19-10-13-2-3-5 2-4 5-1 27-23 1-1-18v-59l-1-14z" fill="#0B202D"/>
<path transform="translate(757,725)" d="m0 0h10l11 4 8 6 7 8 3 10 1 8v27l-1 30h-24l-1-5v-52l-4-9-7-3-7-1-9 2-5 5-3 5-1 4 1 28v26h-24l-1-1v-91h24l1 2-1 10 4-5 10-6z" fill="#0B202D"/>
<path transform="translate(798,695)" d="m0 0h87v16l-1 8-1 1h-27l-5-1v38l-1 61h-23l-1-2-1-97h-37v-23z" fill="#0B202D"/>
<path transform="translate(1549,692)" d="m0 0h1l1 43-10-6-15-3-11 1-9 4-8 6-8 9-5 11-1 4v17l4 10 8 11v3l-3-3-4 1-3 3-16 7-10 1-5 2-3 6h-1l-1-29v-26l6-9 10-6 11-2 5-14 1-4-8-2h-7l-8 3-6 5-3 6h-2l-1-13-17-1-5-1v88l-2 6-1 1h-11l-4-2h4l-1-2-1-10-1-55-3-9-6-7-10-6-6-3v-1h12l8-3 7-1h26l9 2 10 3 13-3 12 1 8 4 2 6 5-1 9-6 10-4 5-1h20l6-3z" fill="#CED8DC"/>
<path transform="translate(442,719)" d="m0 0h12l11 3 9 5 6 8 4 11 1 6v10l-4 13-6 9-8 6-10 4h-15l-12-5-9-7-6-10-2-8v-14l3-8h2l2-12 5-5 9-4z" fill="#D2D9DD"/>
<path transform="translate(710,744)" d="m0 0h1l1 73 24 1-2-44v-10l3-8 5-6 5-2 8-1 9 2 5 5 3 7v57h8v2l-12 6h-26l-5-3-1-2-27-1-12-6-7 1-10 4-4-1 12-6 9-6 3-3-13-10h-4l-6 4-3 1h-15l-9-4-5-4-2-3v-5l38-1h24l-1-4v-7l1-1 1-7h2l1 8z" fill="#D2D9DD"/>
<path transform="translate(984,725)" d="m0 0h16l14 5 11 6v3l-8 7-4 6-4-2-4-3-4-1h-14l-4 4 1 5 8 4 19 6 8 4 8 7 2 4v16l-5 10-13 10-10 3h-14l-11-3-14-7-5-5 1-4 9-10 7 3 13 4 11 1 5-3 1-1v-6l-3-3-19-5-14-7-8-7-3-8v-7l3-9 6-8 11-7z" fill="#041421"/>
<path transform="translate(1125,695)" d="m0 0h1l1 33v90l-3 1-6-12-21-27-9-10 1-5 4-13h4l3 1 1-8 3-7 7-3 5-5v-2h-24l-4-2-2 6-6 10-10 10-7 10h-2l1-53h2l3 10 2 1 6-3 14-1 28 7 5-1 1-2 1-19z" fill="#D7E7F0"/>
<path transform="translate(1426,726)" d="m0 0 22 1 1 1v13h2l2-6 8-7 7-2h7l9 3-3 9-4 10-11 2-11 7-4 7v54h-12l-13 1-1-5v-85z" fill="#0B202D"/>
<path transform="translate(885,718)" d="m0 0 1 4v3l5 1-4 3-12 7-1 1v5l6 5h8l14-3 10 1 9 6 4 5 1 7-12-1h-18l-11 4-9 6-8 9-2 9 4 12 6 9 10 7-2 1-10-5-5-5-6-8-5-10-1-3-3-1-1 26-2 4v-98h32z" fill="#E1EDF2"/>
<path transform="translate(885,707)" d="m0 0h1l2 9 2 7 16-1 13 2 12 3 12-1 12 3 6 3 8-2-1 4-5 5-4 7-1 5v7l3 8 7 6 14 7 19 5 4 4v6l-4 4-9 1-16-4-8-4-5 4-5 6v5l20 10 4 1v2h-14l-9 5-8 1-4-1v-2l-7-1-4 4-11 1-5-3-1-6 1-2-10 4-4-1 13-8 5-5h2v14l2-1h21l-1-6-1-40-1-19-3-10-7-8-14-7-9-2h-12l-10 1-6-2v-6h-1v-8z" fill="#E2EEF3"/>
<path transform="translate(1411,722)" d="m0 0h26l9 2 10 3 13-3 10 1v2h-11l-8 3-6 5-3 6h-2l-1-13-17-1-5-1v88l-2 6-1 1h-11l-4-2h4l-1-2-1-10-1-55-3-9-6-7-10-6-6-3v-1h12l8-3z" fill="#CDD8DC"/>
<path transform="translate(1070,782)" d="m0 0 4 2 10 14 10 15 2 4 27 1 1-2-1 4-15 1-12 6-6 1-26 1-18-1-11 3h-10l-11-2-10-10 1-2 5-1 9 2h15l4 1v-19h1l1 17h22v-27l6-7z" fill="#CFD8DC"/>
<path transform="translate(1336,736)" d="m0 0 1 2h2l5 9h31l6 3 5 6v8h-27l-10 2-8 4-8 7-6 13v8l5 10 5 5 10 5 7 2v1l-13-1-10-1-16 4h-10l-11-4h-7l1-2 9-4 10-7 3-3 4-8 4-4h2l2-5 4-8 1-8 1 2 7-3 2-2 1-8-6-18 1-3z" fill="#D8E8F0"/>
<path transform="translate(556,748)" d="m0 0h15l10 5 6 9 1 3v10l-3 9-6 7-5 3-13 1-7-3-7-7-4-9-1-5v-8l3-6z" fill="#D3E6EF"/>
<path transform="translate(1270,748)" d="m0 0h8l8 3 8 8 4 8v11l-6 11-9 6h-13l-10-6-6-9-2-10v-8l5-8 10-5z" fill="#D6E7F0"/>
<path transform="translate(881,519)" d="m0 0 7 1 27 18 27 14 9 7 14 11 14 10 3 3h2l2-9h1v24l-11-7-19-11-23-14-14-9-13-8-15-9-12-8-1-1v-7z" fill="#3EBAD9"/>
<path transform="translate(1e3 774)" d="m0 0h10l3 1 3 6-1 11 2 2 7 1v-7h1v8l-5 10-13 10-10 3h-14l-11-3-14-7-5-5 1-4 9-10 7 3 13 4 11 1 5-3 1-1v-8-3-2l-3-1 1-5z" fill="#0B202D"/>
<path transform="translate(1522,749)" d="m0 0h12l8 3 7 8 2 9-1 11-4 8-7 6-2 1h-11l-8-5-6-7-4-8-1-5v-8l3-6 9-6z" fill="#D2DADD"/>
<path transform="translate(1203,701)" d="m0 0 5 2 5 5 5 8 2 5 1 12-3 9-5 8-2 3 11 10 3-1 4-11 6-10 9-8 12-7h2v2l-9 5-7 5-9 14-4 12v14l3 12 7 11 5 6 12 7 10 4-4 1-12-4h-5l-11 7-13 4-11-1-15-5-1-3 15-8 7-9 7-8 2-6-1-12-4-6-11-11-7-2v-2l9-6 4-8 2-6v-10l-4-10-8-9-2-1z" fill="#D8EAF0"/>
<path transform="translate(710,744)" d="m0 0h1l1 73 24 1v2h-27l-12-6-7 1-10 4-4-1 12-6 9-6 3-3-13-10h-4l-6 4-3 1h-15l-9-4-5-4-2-3v-5l38-1h24l-1-4v-7l1-1 1-7h2l1 8z" fill="#C9D6DA"/>
<path transform="translate(1170,765)" d="m0 0h10l9 3 8 6 2 5v6l-4 6-5 3-5 1h-23l-11-1-1-1v-27z" fill="#DEECF1"/>
<path transform="translate(1161,716)" d="m0 0h18l10 2 7 4 4 9-4 7-3 3-3 8h2l4 16 5 2 3 9-2 7-3 5-2-1 1-2-1-9-5-5-7-4-5-1-30 1-2 3v-17l1-8 30-1 7-2 5-4 2-4-1-7-2-4-6-3-6-1-27-1v-1z" fill="#041321"/>
<path transform="translate(979,112)" d="m0 0 8 1-1 6h-2l2 5-5 2-3 1 1 4 7-1-5 4-18 10-13 8-5 1-9 1-4 1h-4l-3 2-8 1-1-3 2-5 5-4 13-8 3-3h2v-2l16-10 11-7z" fill="#295165"/>
<path transform="translate(851,719)" d="m0 0 30 1v1l-7 1 3 2v5l-6 7-6 9-2 6 1 13 3 11-3 8v10l5 12 4 7h-2l-6-8-5-9-3-7-3-1-1 26-2 4z" fill="#D8E8F1"/>
<path transform="translate(1100,748)" d="m0 0h1l2 12 4 3 8 1h2l1-3h3l3 12 1-15h1l1 60-3 1-6-12-21-27-9-10 1-5 4-13h4l3 1z" fill="#D3E6EF"/>
<path transform="translate(512,763)" d="m0 0 2 3 3 3 1-5h1l1 6v29l-2 28-4-5-16 1-6-4-4-4v-2h-7l4-6 6-5 5-4 1-3h2v-3h2l1-4 2-3h2l5-20z" fill="#E1EEF3"/>
<path transform="translate(618,757)" d="m0 0h1l-1 7v16l3 12 6 9 9 9 10 5 3 1v2l-9-2-2-1h-7l-10 7-8 3h-11l-7-5-2-4-2-2 10-13 3-1 2-5 4-6 2-6 1-24h3z" fill="#DEEBF1"/>
<path transform="translate(1150,718)" d="m0 0h28l9 2 5 5 2 5-1 6-4 5-5 3-5 1h-29z" fill="#D8E7F0"/>
<path transform="translate(1e3 726)" d="m0 0 6 1 17 8 2 3-10 9-3 5-4-2-4-3-4-1h-14l-7 2-5 3-7-1-5 2-1-4 2-4h2l1-7 9-6 6-2z" fill="#0B202D"/>
<path transform="translate(896,761)" d="m0 0h18l8 2 3 1v15h-2v-2l-14-1-4-3-9-2-6 2-8 5-3 10-3 8-1 6h2l3 6 5 5 6 4v2l-6-1-10-7-7-11-3-10 2-9 9-10 9-6z" fill="#041421"/>
<path transform="translate(753,747)" d="m0 0 11 2 5 5 3 7v27l-1 30-2-3-1-6v-30l-1-5-8-3-10-1h-7l-3 3-2 20-2-1-1-28 3-8 5-6 5-2z" fill="#D2E5EF"/>
<path transform="translate(880,174)" d="m0 0 5 2 2 3 1 8 6-2-5 5-19 11-14 9h-2v-2l-10-3-5-2v-6h2l1-3 13-8 11-6 10-5z" fill="#295165"/>
<path transform="translate(521,778)" d="m0 0h1v36l3 9 10-2 4-2 1-13h4l9 6 4 3-6-1-6-4-1-1 1 42h-26v-52z" fill="#051422"/>
<path transform="translate(439,720)" d="m0 0 2 1 1 2h-3l2 5 3 5-1 7-4 7-8 7-11 5-2 1v8l4 9 5 6-1 3-5-4-6-10-2-8v-14l3-8h2l2-12 5-5 9-4z" fill="#D6E7F0"/>
<path transform="translate(1037,691)" d="m0 0h23l1 9v32l-2-1-2-11-6 1-8 4-2 4-1 12h-2l-1-14z" fill="#041320"/>
<path transform="translate(885,707)" d="m0 0h1l2 9 2 7 16-1 13 2 12 3 12-1 12 3 6 3 4 1-11 8 2 18v10l-4 6h-2l-3-3-1-19-3-10-7-8-14-7-9-2h-12l-10 1-6-2v-6h-1v-8z" fill="#D4E6EF"/>
<path transform="translate(1010,497)" d="m0 0 2 1 1 22v23l-1 32h-1v-42l-10-1-5 3-5-1-2 1-1-20-1-5-3-2 2-10h1l2 11h2l16-8z" fill="#295165"/>
<path transform="translate(995,101)" d="m0 0h8l15 4 24 13 18 10 5 4 6 3 14 9 17 11 18 11 11 6 11 7 17 11 15 10 19 12 15 9 17 9 8 6 9 10 4 6 2 8-3-1-7-13-9-10-13-8-22-12-20-13-28-17-17-10-15-10-22-13-20-13-26-15-12-7-14-8-12-5-18-2v-1z" fill="#CAD9DD"/>
<path transform="translate(643,782)" d="m0 0h62v1l-10 2-1 6 2 5h2l4 6-1 2-15-12-12 6h-15l-9-4-5-4-2-3z" fill="#D5E6EF"/>
<path transform="translate(1125,695)" d="m0 0h1l1 33v16l-2 36h-1l-3-19-3 1-3 3-8-1-5-4-1-5v-10l3-7h4l2 3 3-1 2-3 6 1 3-13z" fill="#E1EEF4"/>
<path transform="translate(563,758)" d="m0 0 2 2h4l4 6 9 6 1 2v8l-4 6-4 3-1 3-13 1-4-2v-2l1-12 1-6h-2l1-6z" fill="#D2D9DD"/>
<path transform="translate(948,795)" d="m0 0h1l1 10 6-1 1-2 1 4 20 10 4 1v2h-14l-9 5-8 1-4-1v-2l-7-1-4 4-11 1-5-3-1-6 1-2-10 4-4-1 13-8 5-5h2v14l2-1h21l-1-6z" fill="#CED7DB"/>
<path transform="translate(1522,749)" d="m0 0h12l8 3 7 8 2 9-1 11-4 8h-3l2-6 1-14-4-6-4-3-9-1-7 4-6-2-3 1-1 6 4 2 2 5 3 12 4 7-5-1-8-9-4-8-1-5v-8l3-6 9-6z" fill="#D3E6EF"/>
<path transform="translate(1231,802)" d="m0 0h5l7 5 11 6 12 5-4 1-12-4h-5l-11 7-13 4-11-1-15-5-1-3 3-1h8l10-2h6l1-4z" fill="#D1D9DC"/>
<path transform="translate(799,461)" d="m0 0 5 1 18 13 16 13 8 6 5 4 1 2v6l-2 4-5-1-13-7-19-14v-2l7-1 1-3h2l-3-5-11-8h-7l-3 1-3-3 1-4h2z" fill="#3EB9D8"/>
<path transform="translate(906,777)" d="m0 0h17l1 2v9l-5 5-8 5-6 2h-6l-7-4-3-6 1-7 7-5z" fill="#D5E7EF"/>
<path transform="translate(1150,766)" d="m0 0h20l6 2-1 12 1 8-2 3h-19l-3-4-1 6h-1z" fill="#D6E7EF"/>
<path transform="translate(807,719)" d="m0 0h18v92h-1l-1-9-1-29-2-10-6-18-2-8v-9l3-5-27-2v-1z" fill="#D8E7F0"/>
<path transform="translate(1551,691)" d="m0 0h17l6 1v50l-2 1-1-27-2-4-4-1-8-1-3 3-1 2-1 14-2-4v-24z" fill="#041321"/>
<path transform="translate(1362,780)" d="m0 0h19l4 3 1 7-4 6-8 4-4 1h-7l-6-3-3-5v-8l4-4z" fill="#CED8DB"/>
<path transform="translate(1121,415)" d="m0 0h2v58l-1 30-1 12h-1v-29l1-23h-3v-2l-6-2v-36l3-5z" fill="#3FBAD9"/>
<path transform="translate(655,747)" d="m0 0h14l8 6 3 5v5l-30 2h-8l-1-1v-5l5-7 6-4z" fill="#D7E7EF"/>
<path transform="translate(1426,726)" d="m0 0 22 1 1 1v13l-2-4-2-5-4-1-9 2-2 5v70l-1 10-3 1-1-5v-85z" fill="#061725"/>
<path transform="translate(910,388)" d="m0 0 6 2 8 7 16 13 14 10 16 14 10 9 13 11 4 5 5-1 5-6 11-9 4-3h2l-1 3-11 9-12 12-4-2-11-10-11-9-13-11-9-7-17-14-10-8-12-11-3-2z" fill="#D7E8EF"/>
<path transform="translate(901,725)" d="m0 0h12l12 3 4 2v2l-5-1h-14l-8 5-5 3-9 2h-9l1 6-4-2-3-3v-5l10-7 6-3z" fill="#041421"/>
<path transform="translate(1203,701)" d="m0 0 5 2 5 5 5 8 2 5 1 12-3 9-5 8-2 3 11 10 3-1 4-11 6-10 9-8 12-7h2v2l-9 5-7 5-9 14-4 12-1 12h-2l-1 4-2-8-7-8-7-7-7-2v-2l9-6 4-8 2-6v-10l-4-10-8-9-2-1z" fill="#C9E0E9"/>
<path transform="translate(1047,558)" d="m0 0 3 1 1 2-1 10-9 7-5 3 1 2-8 2-10 4-1-3-3-1 4-5 6-5 5-5 12-9z" fill="#295165"/>
<path transform="translate(1327,801)" d="m0 0 3 4 5 7 12 6 7 2v1l-13-1-10-1-16 4h-10l-11-4h-7l1-2 7-2 1 1h15l8-2 4-4 3-7z" fill="#CED8DC"/>
<path transform="translate(1062,712)" d="m0 0h1l2 26 2 8 4-1 4-5 5-12 5-5 11 1 17 1-4 2-3 1h-14l-4-2-2 6-6 10-10 10-7 10h-2z" fill="#DEEBF1"/>
<path transform="translate(1171,478)" d="m0 0h3l2 4-1 7-3 5 1 2-15 10-5-2-1-10 5-5 9-7z" fill="#295668"/>
<path transform="translate(710,725)" d="m0 0h1v19l-1 32h-1l-1-6v-8h-2v7h-3l-3-15-4-9-8-9-6-4v-2l5 1 10 8 4 4 5 1 2-16z" fill="#D5E6EE"/>
<path transform="translate(1127,730)" d="m0 0h2l3 11 1 9-1 16-2 10-1 15v9l1 2 1 12 5 2v1h-9l-1-9v-64z" fill="#071826"/>
<path transform="translate(788,696)" d="m0 0h88v1l-59 1-9 2-8 6-7 9-1 3h14v1h-18z" fill="#03111E"/>
<path transform="translate(1270,748)" d="m0 0h8l8 3 8 8 4 8v11l-6 11-9 6h-13l-10-6-5-7 1-4 6 7 8 6h12l8-6 3-5 1-10-5-8-9-9-11-2z" fill="#D9E9F0"/>
<path transform="translate(855,182)" d="m0 0h2v2l-21 13-14 9-25 16-16 10-12 9-8 9-5 10-2 13-2 1v-8l2-9 6-11 12-12 12-9 11-6 11-7 10-6 16-9 11-9z" fill="#CFDBE0"/>
<path transform="translate(1325,792)" d="m0 0h1l1 11-5 10-5 3-6 1h-15v-3l11-8 4 1 6-8 3-3h4z" fill="#D3E4ED"/>
<path transform="translate(984,104)" d="m0 0 3 1-22 12-20 13-19 11-17 11-18 11-19 12-12 7h-2l1-3 11-7 17-10 14-9 18-10 10-7 20-12 16-10z" fill="#CCDADF"/>
<path transform="translate(1032,798)" d="m0 0h3l1 9 2 12h-19l-9-2 5-5 9-7 2-2v2h2l2-4z" fill="#D6E7F0"/>
<path transform="translate(596,808)" d="m0 0v3l4 7 6 2 10-3 12-9 7 1 8 5 6 2v2l-9-2-2-1h-7l-10 7-8 3h-11l-7-5-2-4-2-2z" fill="#D1D9DC"/>
<path transform="translate(980,493)" d="m0 0 5 3 1 7-1 5 3 2 1 5v27h-1l-1-24-9 6-4-2-1-6-2-1 6-5 1-11z" fill="#3FBAD9"/>
<path transform="translate(1210,292)" d="m0 0h1l1 7 1 75v46l-1 25h-1l-1-41z" fill="#061623"/>
<path transform="translate(885,707)" d="m0 0h1l2 9 2 7 16-1 13 2 12 3v2l6 2 9 6 3 3 1 7-2 7-2-1-3-10-7-8-14-7-9-2h-12l-10 1-6-2v-6h-1v-8z" fill="#DCEAEF"/>
<path transform="translate(753,747)" d="m0 0 11 2 5 5 3 7v27l-1 30-2-3-1-6v-23l1-12-2-10-1-3h-2l-8-10-5-2z" fill="#D4E6EC"/>
<path transform="translate(1091,774)" d="m0 0 4 2 12 15 12 16 4 7v4h-27l-12-19-10-13-2-3-3-2 5 1 4 5v2l4 2 4 5 6 10 6 9 21 1-4-8-9-13-9-11-6-8z" fill="#0A1D2B"/>
<path transform="translate(752,309)" d="m0 0 2 2 1 23-1 115h-1l-1-16z" fill="#C9D7DC"/>
<path transform="translate(967,790)" d="m0 0 7 3 10 4v1h-10l-2 5v7l5 5-6-1-10-6-4-4 1-4z" fill="#051522"/>
<path transform="translate(387,758)" d="m0 0 2 3 3 16 4 10 7 10 7 7 11 7 9 5-2 1-20-6-6-4-8-15-6-18-1-4z" fill="#CBD8DC"/>
<path transform="translate(1070,782)" d="m0 0 4 2 10 14 9 14v3l-5-2-5-3v-2h-2l-2-4-3-3-1-6-3-8h-4v2h-2l-1 10v15l-2 3-1-27 6-7z" fill="#D7E7EF"/>
<path transform="translate(1549,692)" d="m0 0h1l1 43-10-6-15-3-11 1-9 4-4 2-2-2 12-6 8-2h20l6-3z" fill="#C6D5DA"/>
<path transform="translate(1368,745)" d="m0 0h7l8 3 4 5 1 3v11l-3 3-5-3h-11l-10 2-11 1-5 2-3-1 4-4 8-3 7-1h24l3 1-2-10-6-5-9-2z" fill="#061725"/>
<path transform="translate(1150,718)" d="m0 0h28l9 2 5 5 2 5-1 6-4 5-5 3h-2l2-4 5-5-1-5-6-7-6-2h-14l-9 1-1 20-2 3z" fill="#D3E7EE"/>
<path transform="translate(489,803)" d="m0 0 2 1-4 4 6 3 3 3h18l4 2v11l-4-5-16 1-6-4-4-4v-2h-7l4-6z" fill="#CFD9DD"/>
<path transform="translate(924,805)" d="m0 0h2v14l2-1h21v1l-9 2-4 4-11 1-5-3-1-6 1-2-10 4-4-1 13-8z" fill="#C9D6DA"/>
<path transform="translate(906,777)" d="m0 0h17l1 2v9l-5 5-8 5-4-1 4-3-3-12-3-3z" fill="#DDEBF1"/>
<path transform="translate(1468,726)" d="m0 0h7l2 2-3 5h-2l-1 3-5 3-1 3-9 2-5-2 1-5 6-7 6-3z" fill="#051421"/>
<path transform="translate(564,725)" d="m0 0h11l10 3 9 5 9 8 7 11 2 6v21h-1l-3-22-6-12-8-9-10-5-9-1h-12l-6 3-2 2-4-1 5-6z" fill="#061624"/>
<path transform="translate(995,101)" d="m0 0h8l15 4 24 13 18 10 5 4 6 3 5 5-2 1-28-16-12-7-14-8-12-5-18-2v-1z" fill="#CEDBDF"/>
<path transform="translate(819,719)" d="m0 0h6v92h-1l-1-9-1-42-2-30 1-8-3-2z" fill="#E5F0F5"/>
<path transform="translate(1419,773)" d="m0 0 3 3 2 10v11l-2 4-5 1-3-2v-19l3-6z" fill="#BDC0C1"/>
<path transform="translate(1227,796)" d="m0 0 5 1 8 5 3 4-1 2-6-5h-5l-9 8-1 3-9 1-7 2h-8l3-3 7-4 3 1 11-6 3-8z" fill="#D7E7EF"/>
<path transform="translate(496,802)" d="m0 0h3l1 5 19 2-1 7-6-1h-16l-6-5-4-2 4-4z" fill="#D7E6EF"/>
<path transform="translate(1115,515)" d="m0 0 2 3 2 4 2 1 2-3v7l-4 1-9 3-7 2-6-1v-5l14-9z" fill="#295165"/>
<path transform="translate(608,799)" d="m0 0h2l-3 10-2 1 1 4 5 1 8-3 7-6 5 1-3 2-10 8-7 3-7 1-5-3-4-7 2-5 2 1 6-2 1-4z" fill="#D6E6EF"/>
<path transform="translate(1256,726)" d="m0 0h2v2l-9 5-7 5-9 14-4 12-1 12h-2l-1 4-2-8-7-8-3-3v-2l5 2 7 6 2-12 8-14 9-8z" fill="#CCE2EA"/>
<path transform="translate(643,782)" d="m0 0h27v1h-16v2l-6 2 1 4 7-2 8 2 12 2-2 5h-15l-9-4-5-4-2-3z" fill="#CAD7DC"/>
<path transform="translate(1357,747)" d="m0 0h18l6 3 5 6v8h-34l2-3 4-1 22-1-1-3-4-4v-2l-19-1z" fill="#DCE9EF"/>
<path transform="translate(798,695)" d="m0 0h87v16l-1 8-1 1h-27l-1-2h27l-1-19-5-2-78-1z" fill="#132C3C"/>
<path transform="translate(419,733)" d="m0 0 12 6-1 4-1 2-4 1-5 5-3 4-2 9h-2v-14l3-8h2z" fill="#DCECF2"/>
<path transform="translate(1127,695)" d="m0 0h54l2 2-50 1-2 1-3 31-2-2v-15z" fill="#091C2B"/>
<path transform="translate(1509,728)" d="m0 0 4 1-4 4-4 8-5 5-9 5h-2l-1 3h-2l2-6 6-8 7-7z" fill="#041421"/>
<path transform="translate(659,747)" d="m0 0h10l8 6 3 5v5h-23v-1l12-1-2-5-3-3v-3h-5z" fill="#E3EDF2"/>
<path transform="translate(870,567)" d="m0 0 11 6 13 8 9 5 15 10 16 10-3 1-16-9-20-12-17-11-8-5z" fill="#071926"/>
<path transform="translate(1172,201)" d="m0 0 5 1 24 15 24 13 8 6 9 10 4 6 2 8-3-1-7-13-9-10-13-8-22-12-20-13z" fill="#C2D3D8"/>
<path transform="translate(571,750)" d="m0 0 7 1 5 5 4 6 1 3v10l-3 9-6 7-5 2 1-3 5-4 2-4 1-12-3-10-7-8z" fill="#DAE9EF"/>
<path transform="translate(680,756)" d="m0 0 2 4-2 5-13 5-5 1h-8l-7-4-6-1v-1l25-2h14z" fill="#061725"/>
<path transform="translate(1336,736)" d="m0 0 1 2h2l5 9 11 1-3 3-3 5-5 2-3-1-7-13 1-7z" fill="#E0EEF3"/>
<path transform="translate(1365,782)" d="m0 0 4 1 2 10 2 1v3l-2 1h-9l-4-4-1-9 3-2z" fill="#BDC0C1"/>
<path transform="translate(438,693)" d="m0 0h22l3 2-27 1-12 4-12 7-5 4-8 10-6 11-3 3 1-5 6-11 9-10 9-8 11-5z" fill="#B3CFD7"/>
<path transform="translate(1367,725)" d="m0 0h11l14 5 3 3-9 1-2 1h-6l-14-7v-2z" fill="#041421"/>
<path transform="translate(986,747)" d="m0 0h12l2 3v6l-2 1h-8l-2-1-1 2-5-5 1-5z" fill="#D3E6EF"/>
<path transform="translate(645,778)" d="m0 0 27 1h29l3-1 1 3-63 2v-3z" fill="#071927"/>
<path transform="translate(655,726)" d="m0 0h15l11 4 10 8 5 6-1 2-7-8-7-4-8-3-10-2-6 1-10 2-5 3h-3l1-3 8-4z" fill="#061725"/>
<path transform="translate(919,440)" d="m0 0h6l5 5v6l5 3 4 1 2 6-4-1-13-9-8-7 1-3z" fill="#061624"/>
<path transform="translate(872,285)" d="m0 0h4l1 5v7h-1v-6l-22 1v48h-1v-50l8-3z" fill="#295165"/>
<path transform="translate(711,726)" d="m0 0h24l1 2-2 5-4-4h-16l-1 54h-1l-1-17z" fill="#071825"/>
<path transform="translate(984,104)" d="m0 0 3 1-22 12-20 13-19 11-7 5h-2v-2l17-11 15-9 16-10z" fill="#C7DAE0"/>
<path transform="translate(1292,728)" d="m0 0 6 1 13 8 7 7 5 8 1 6-1-2-3 1-8-12-4-5-10-7-6-4z" fill="#D2E6EE"/>
<path transform="translate(522,724)" d="m0 0h21l6 2h10l-5 5-10 9h-1l1-12-20-2z" fill="#C5E1EB"/>
<path transform="translate(1035,694)" d="m0 0h1l3 47v12l-2 8h-1l-1-22-1-8z" fill="#D1E8F0"/>
<path transform="translate(459,722)" d="m0 0 9 1 8 6 6 10 2 7v15l-2 1-2-17-3-7-5-6v-2l-5-2-8-5z" fill="#D7E7EE"/>
<path transform="translate(1127,817)" d="m0 0h30l34 1-3 2h-49l-14-1z" fill="#ACCFD8"/>
<path transform="translate(1211,369)" d="m0 0h1l1 5v46l-1 25h-1l-1-41v-34z" fill="#03111E"/>
<path transform="translate(1016,118)" d="m0 0 5 1-1 5-4 2-2 2-4-1 4 4-9-3-9-2-1-4 13 1v-3h6z" fill="#285064"/>
<path transform="translate(1233,790)" d="m0 0 10 10 8 4 6 8 6 3-4 1-12-6-7-6-7-11z" fill="#071826"/>
<path transform="translate(519,725)" d="m0 0 26 2-3 4v-2l-20 1v28l-2 3-1-22z" fill="#071826"/>
<path transform="translate(646,752)" d="m0 0 6 2 1 4 2 2v3h11v1l-24 1-1-1v-5z" fill="#BCD2D8"/>
<path transform="translate(962,477)" d="m0 0h8l9 7 3 5v4l-4-1-10-8-6-5z" fill="#061725"/>
<path transform="translate(781,227)" d="m0 0m-1 1 4 2-14 10-9 10-5 10-2 13-2 1v-8l2-9 6-11 12-12z" fill="#CAD8DD"/>
<path transform="translate(1469,724)" d="m0 0 10 1v2h-11l-8 3-6 5-3 6h-2l-1-14 4-1 4 1z" fill="#BDD6DD"/>
<path transform="translate(1069,781)" d="m0 0 5 1 4 5v2l4 2 4 5 6 10 6 9 20 1v1l-22 1-12-19-10-13-2-3z" fill="#081927"/>
<path transform="translate(1374,781)" d="m0 0h9l3 5-1 6-3 4h-4l-2-5v-7l1-2z" fill="#DCE9EF"/>
<path transform="translate(591,732)" d="m0 0 4 2 8 7 7 11 2 6v21h-1l-3-22-6-12-8-9-3-2z" fill="#081927"/>
<path transform="translate(718,724)" d="m0 0h15l6 2 14-1-1 2-10 5-5 5-3 2 1-12-17-2z" fill="#D1E5EC"/>
<path transform="translate(1150,718)" d="m0 0h21l5 1v1l-23 2-1 20-2 3z" fill="#CAE3EB"/>
<path transform="translate(1075,139)" d="m0 0 5 2 16 10 14 9v3l-11-6-18-11-6-4z" fill="#C3D6DC"/>
<path transform="translate(1522,749)" d="m0 0h12l8 3 7 8 1 6-3-2-3-6-7-4-16-1-2-1z" fill="#D7E7ED"/>
<path transform="translate(967,730)" d="m0 0h2l-1 4-5 5-4 7-2 11-2-1-2-15 12-9z" fill="#DBEBF2"/>
<path transform="translate(1153,768)" d="m0 0h15l-1 3-10 4-5-1-1 19h-1v-24z" fill="#B3D3DC"/>
<path transform="translate(1256,726)" d="m0 0h2v2l-9 5-7 5-9 14-6 6 1-5 7-12 9-8z" fill="#D4E7EE"/>
<path transform="translate(948,785)" d="m0 0h1v5l5 2 2 3v9l-6 1v5h-1z" fill="#D7E6EF"/>
<path transform="translate(770,775)" d="m0 0h1v43l-2-3-1-6v-23z" fill="#DFECF2"/>
<path transform="translate(855,182)" d="m0 0h2v2l-21 13-14 9h-2v-2l13-8 10-8z" fill="#CFDADE"/>
<path transform="translate(1463,751)" d="m0 0 4 1-4 1-1 4-5 5-3 5-2 16h-1v-21l5-7z" fill="#CEE4EE"/>
<path transform="translate(1385,783)" d="m0 0h3v10l-2 9-5 1-5-1 1-4 6-4 2-4z" fill="#041421"/>
<path transform="translate(1106,727)" d="m0 0h10l1 3-5 5-5 3-4-8v-2z" fill="#071826"/>
<path transform="translate(1271,725)" d="m0 0h11l13 5 3 2v2l-9-2-6-2-12-2z" fill="#051523"/>
<path transform="translate(885,707)" d="m0 0h1l2 9 2 7h14l-3 3-10 1-6-2v-6h-1v-8z" fill="#C8E2EC"/>
<path transform="translate(1022,440)" d="m0 0h2l-1 3-11 9-12 12-4-2-2-4 7 1 6-7 11-9z" fill="#CDE0E7"/>
<path transform="translate(685,792)" d="m0 0 4 2 11 8v3l-5 3h-3l-1-8-5-4-3-2z" fill="#071725"/>
<path transform="translate(502,784)" d="m0 0 4 1h-2l-2 4-1 3h-2v3h-2l-1 4-5 4-1-3 5-10z" fill="#2B5A6F"/>
<path transform="translate(670,782)" d="m0 0h35v1l-18 1-2 2-11-1-20-1v-1z" fill="#E5EFF4"/>
<path transform="translate(1196,262)" d="m0 0 11 1 2 1 1 3v7l-6-3-8-7z" fill="#051523"/>
<path transform="translate(1358,781)" d="m0 0 4 1-3 3h-2l2 9 3 3v2h10l-2 2h-7l-6-3-3-5v-8z" fill="#BEDBE4"/>
<path transform="translate(779,729)" d="m0 0 6 1 7 8 2 1 4 9v5h-3l-3-10-9-10z" fill="#D8E6ED"/>
<path transform="translate(880,514)" d="m0 0 5 5-4 1-2 11-5-2-4-4 5-3 3-6h2z" fill="#295165"/>
<path transform="translate(1123,475)" d="m0 0h1l1 17 1 8-2 14h-2v-25z" fill="#03121F"/>
<path transform="translate(1070,782)" d="m0 0 4 2v1l-5 1-1 3h-2l-1 10v15l-2 3-1-27 6-7z" fill="#CCE3ED"/>
<path transform="translate(521,842)" d="m0 0 6 1 2 3v3h16v2h-24z" fill="#0B212E"/>
<path transform="translate(1006,725)" d="m0 0 10 2 10 6 2 4-4-1-17-8-3-2z" fill="#D1E8EF"/>
<path transform="translate(643,782)" d="m0 0h27v1h-16v2l-6 2 1 6-6-6z" fill="#D1DDE2"/>
<path transform="translate(984,723)" d="m0 0h20l-2 1v2h-18l-11 4-4 2 1-4z" fill="#DCE5EA"/>
<path transform="translate(1203,701)" d="m0 0 5 2 5 5 5 8 2 5-1 10h-1l-2-12-3-6-8-9-2-1z" fill="#CDE2EA"/>
<path transform="translate(1125,800)" d="m0 0h1l1 8v10l-3 1-5-10 1-3 3 2 1-7z" fill="#CFE6EE"/>
<path transform="translate(1127,790)" d="m0 0 2 1v9l1 2 1 12 5 2v1h-9z" fill="#03111E"/>
<path transform="translate(829,543)" d="m0 0 6 2 15 9 6 4-3 1-18-10-6-4z" fill="#091B29"/>
<path transform="translate(1449,781)" d="m0 0h1l1 9v28h-3z" fill="#132C3C"/>
<path transform="translate(796,523)" d="m0 0 5 1 13 8 7 5-3 1-17-10-5-3z" fill="#071927"/>
<path transform="translate(1039,277)" d="m0 0 4 1 12 10 10 8 4 4-1 2-13-11-8-7-8-6z" fill="#071825"/>
<path transform="translate(558,751)" d="m0 0 4 1 1 3-2 2-5 2h-2l-2 5-5-1 4-4 3-6z" fill="#D3DADD"/>
<path transform="translate(642,786)" d="m0 0 5 5 6 4 10 3v1l-10 1-8-6-3-6z" fill="#061623"/>
<path transform="translate(923,789)" d="m0 0 1 4-5 5-9 3-3-1 1-2 10-5z" fill="#061624"/>
<path transform="translate(851,498)" d="m0 0 2 1 3 12 1 5-6-2-6-4 2-1 3 1 1-10z" fill="#295165"/>
<path transform="translate(795,477)" d="m0 0 5 2 14 9 1 3-5-2-11-6-4-4z" fill="#091C2A"/>
<path transform="translate(1234,239)" d="m0 0 4 2 8 11 2 8-3-1-7-13-4-5z" fill="#C7DFE6"/>
<path transform="translate(1150,185)" d="m0 0 11 6 10 7 3 3-5-1-20-12z" fill="#C7D9DF"/>
<path transform="translate(1548,765)" d="m0 0 2 1 1 9-3 10-4 4-1-2 4-8z" fill="#C6E3ED"/>
<path transform="translate(915,145)" d="m0 0h2v2l-21 13h-3l1-3 12-7z" fill="#D0DDE2"/>
<path transform="translate(1388,808)" d="m0 0h1v10l-5-1-9 3-3-1 10-5z" fill="#C4D7DD"/>
<path transform="translate(1254,783)" d="m0 0 4 2 5 5 9 5-4 1-10-4-3-4z" fill="#061623"/>
<path transform="translate(1184,697)" d="m0 0h8l10 4 10 9h-3l-9-7-16-5z" fill="#091C2A"/>
<path transform="translate(1172,201)" d="m0 0 5 1 24 15 2 2-5-1-18-11-8-5z" fill="#BAD5DE"/>
<path transform="translate(1210,751)" d="m0 0 4 5 8 7 4-1-1 5-4-2-6-5-4-1-4-4z" fill="#CBE4EF"/>
<path transform="translate(929,342)" d="m0 0m-1 1m-1 1m-1 1m-2 1 2 1-24 24-3-1 13-12z" fill="#B3CBD1"/>
<path transform="translate(1096,776)" d="m0 0 7 6 9 13 2 4-4-2-12-16-2-2z" fill="#CFE5EC"/>
<path transform="translate(1079,794)" d="m0 0 3 1 10 15 1 3-4-2-7-10-3-5z" fill="#D8E5EB"/>
<path transform="translate(970,113)" d="m0 0 2 1-1 2-11 6-17 11h-2v-2l12-7 14-9z" fill="#102938"/>
<path transform="translate(1089,805)" d="m0 0 4 2 5 8 20 1v1l-22 1-7-11z" fill="#051523"/>
<path transform="translate(905,722)" d="m0 0 11 1 8 2v3l-11-2-17-1v-1l8-1z" fill="#CCE2EA"/>
<path transform="translate(405,714)" d="m0 0 1 2-7 11h-2l-2 4-1-3 7-11z" fill="#061623"/>
<path transform="translate(434,721)" d="m0 0 4 1-1 2-13 6h-3l2-4z" fill="#CCE6EE"/>
<path transform="translate(1085,387)" d="m0 0 2 1-11 11-6 5-4-1 11-9z" fill="#D6E6EC"/>
<path transform="translate(939,130)" d="m0 0h2l-1 3-14 8-7 5h-2v-2l17-11z" fill="#C6D8DE"/>
<path transform="translate(419,780)" d="m0 0h2l5 5 10 6 3 2h-6l-10-6-4-5z" fill="#081B29"/>
<path transform="translate(1368,745)" d="m0 0h7l8 3 4 5v3h-2l-5-6-5-2-7-2z" fill="#071826"/>
<path transform="translate(1084,315)" d="m0 0 4 1 8 8 11 9 1 2-4-1-13-12-7-6z" fill="#071825"/>
<path transform="translate(995,101)" d="m0 0h8l12 3v3l-12-3-13-1v-1z" fill="#C8D3D7"/>
<path transform="translate(1237,741)" d="m0 0 1 3-6 10-2 1-3 3 1-5 5-9z" fill="#DEE8EE"/>
<path transform="translate(1219,724)" d="m0 0h1l1 9-3 9-4 2 1-5 3-8z" fill="#CEE3EC"/>
<path transform="translate(603,795)" d="m0 0h3l-2 5-6 5-2-2 1-5z" fill="#295367"/>
<path transform="translate(1204,748)" d="m0 0h5v2l-5 3h-2v2l4 2-8-1v-4z" fill="#051421"/>
<path transform="translate(1510,777)" d="m0 0 3 1 7 10v2l5 2-3 1-8-7-4-7z" fill="#D0E3E9"/>
<path transform="translate(1097,199)" d="m0 0 7 4 14 10-2 1-14-9-5-4z" fill="#071927"/>
<path transform="translate(1548,720)" d="m0 0 2 1 1 4v10l-6-4v-2l2-1z" fill="#D2DFE4"/>
<path transform="translate(870,172)" d="m0 0h3l-1 3-12 7h-2l1-3z" fill="#CFDBE0"/>
<path transform="translate(416,768)" d="m0 0h2l4 9 5 6-1 3-5-4-3-5z" fill="#CEE5EE"/>
<path transform="translate(682,730)" d="m0 0 5 1 5 4 4 5v2l-4-2-8-7-2-1z" fill="#D5E4EA"/>
<path transform="translate(924,805)" d="m0 0h2v8l-1 5h-1l-1-6-5 1 2-4z" fill="#CDE5EE"/>
<path transform="translate(691,810)" d="m0 0 3 1-4 4-10 4-4-1 12-6z" fill="#BFD5DB"/>
<path transform="translate(1115,732)" d="m0 0 1 4-3 5-5 1v-5z" fill="#AED5E0"/>
<path transform="translate(1151,742)" d="m0 0 8 1h13v2h-21z" fill="#E7F1F6"/>
<path transform="translate(518,852)" d="m0 0h21v1l-13 2h-6z" fill="#D3DADD"/>
<path transform="translate(1377,782)" d="m0 0 2 1 1 5h1l-1 7-2 1-2-5v-7z" fill="#D8E8F1"/>
<path transform="translate(512,763)" d="m0 0 2 3 3 3 1-5h1v6l-4 4-4-6z" fill="#D7E7EF"/>
<path transform="translate(1312,739)" d="m0 0 6 5 5 8 1 6-4-5-7-11z" fill="#D8E8F1"/>
<path transform="translate(1016,105)" d="m0 0 6 2 8 5-2 2-13-7z" fill="#D2D9DC"/>
<path transform="translate(1215,798)" d="m0 0 3 1-6 7-3 3-1-4 5-6z" fill="#295165"/>
<path transform="translate(1532,748)" d="m0 0h7l5 3 5 7-4-2-5-4-8-3z" fill="#091B29"/>
<path transform="translate(779,729)" d="m0 0 6 1 6 6-1 3-7-6z" fill="#D4E1E8"/>
<path transform="translate(1482,758)" d="m0 0h1v9l-1 8-2-1v-12z" fill="#DCE7EE"/>
<path transform="translate(773,728)" d="m0 0 5 1 8 6 4 5-4-2-9-6-4-2z" fill="#081927"/>
<path transform="translate(400,716)" d="m0 0 1 2-7 11-3 6-1-3 7-13z" fill="#C3D3D8"/>
<path transform="translate(984,196)" d="m0 0 3 2v6l-4 4-1-4z" fill="#3FBAD9"/>
<path transform="translate(1551,808)" d="m0 0h1v5l-3-1-8 5h-3v-2l10-6z" fill="#CCDADF"/>
<path transform="translate(632,736)" d="m0 0h2l-2 4-8 9-2 2v-3l6-8z" fill="#D1E1E6"/>
<path transform="translate(545,729)" d="m0 0 5 5-7 6 1-8z" fill="#CEE4EB"/>
<path transform="translate(387,758)" d="m0 0 2 3 2 15h-2l-2-6z" fill="#B9D0D6"/>
<path transform="translate(1398,733)" d="m0 0 5 2 6 7 1 3-2 2-4-7-6-5z" fill="#CDE1E8"/>
<path transform="translate(426,696)" d="m0 0v3l-11 6h-2l2-4z" fill="#CED8DC"/>
<path transform="translate(791,221)" d="m0 0m-2 1 4 2-7 5h-5l3-4z" fill="#D6DEE1"/>
<path transform="translate(483,703)" d="m0 0 5 2 10 9 1 4-5-5-11-9z" fill="#C8E2EB"/>
<path transform="translate(1086,640)" d="m0 0h2l1 4-2 5-2-1-4-3z" fill="#D3DADD"/>
<path transform="translate(855,182)" d="m0 0h2v2l-10 6h-3l1-3z" fill="#D6DEE1"/>
<path transform="translate(1207,810)" d="m0 0 2 1-4 6h-8l3-3z" fill="#C4E1EB"/>
<path transform="translate(1214,713)" d="m0 0 3 1 3 7-1 10h-1l-2-12z" fill="#B0D9E6"/>
<path transform="translate(1065,133)" d="m0 0 5 1 5 4 1 3-6-2-5-4z" fill="#CCDADF"/>
<path transform="translate(916,812)" d="m0 0 3 1-3 3-6 3-4-1z" fill="#C6DDE5"/>
<path transform="translate(623,794)" d="m0 0 4 4 7 8 2 4-7-6-6-7z" fill="#061725"/>
<path transform="translate(1358,781)" d="m0 0 4 1-3 3h-3v8h-2v-8z" fill="#BDD5DE"/>
<path transform="translate(1237,746)" d="m0 0 1 2-5 8-2 6h-1l1-8 4-7z" fill="#081A28"/>
<path transform="translate(1357,724)" d="m0 0h5l-3 2-14 5v-3z" fill="#BED4DA"/>
<path transform="translate(981,724)" d="m0 0h3v2l-11 4-4 2 1-4z" fill="#CEE2E9"/>
<path transform="translate(1018,810)" d="m0 0 3 1-7 7-4-2z" fill="#CEE4EC"/>
<path transform="translate(546,784)" d="m0 0 7 6 5 5-6-2-5-5z" fill="#0A1D2B"/>
<path transform="translate(548,783)" d="m0 0 6 4 6 6-6-1-6-6z" fill="#DFE8ED"/>
<path transform="translate(442,719)" d="m0 0h12l2 2-16 1z" fill="#BDDCE5"/>
<path transform="translate(1022,440)" d="m0 0h2l-1 3-9 7-2-2z" fill="#D0E5EC"/>
<path transform="translate(1221,230)" d="m0 0 5 1 6 4 3 4h-3l-9-7z" fill="#B4D7E2"/>
<path transform="translate(931,732)" d="m0 0 5 2 7 8h-3l-5-5-4-3z" fill="#081B28"/>
<path transform="translate(1188,210)" d="m0 0 5 2 10 6-4 1-11-7z" fill="#C2D7DF"/>
<path transform="translate(1150,185)" d="m0 0 9 5v3l-10-5z" fill="#C2D5DB"/>
<path transform="translate(1072,183)" d="m0 0 12 7v3l-12-7z" fill="#071826"/>
<path transform="translate(583,783)" d="m0 0 1 3-8 7h-2l1-3 5-4z" fill="#D6E5EB"/>
<path transform="translate(646,752)" d="m0 0 3 1-5 6v5h-3v-5z" fill="#C0DBE4"/>
<path transform="translate(619,754)" d="m0 0h1v5h-3l-5 3v-7l5 1z" fill="#C8E2EC"/>
<path transform="translate(1287,750)" d="m0 0 6 3 1 6-7-6z" fill="#0A1D2B"/>
<path transform="translate(1256,726)" d="m0 0h2v2l-9 5-4 2-1-2z" fill="#C8E1EA"/>
<path transform="translate(1184,697)" d="m0 0h8l6 2-1 2-10-2z" fill="#071826"/>
<path transform="translate(905,722)" d="m0 0 11 1v1l-6 1h-14v-1l8-1z" fill="#DFECF3"/>
<path transform="translate(1059,176)" d="m0 0 5 2 7 4v3l-11-7z" fill="#091C2A"/>
<path transform="translate(543,808)" d="m0 0 3 2-1 13h-1l-1-7z" fill="#BDD7DE"/>
<path transform="translate(757,725)" d="m0 0h10l7 2-1 2-7-1v-2h-9z" fill="#0E2433"/>
<path transform="translate(1057,411)" d="m0 0h2l-1 3-9 7-2-1z" fill="#D2E3E9"/>
</svg>
